<svg version="1.2" xmlns="http://www.w3.org/2000/svg" viewBox="0 0 69 85" width="69" height="85"><style>.a{opacity:.3;fill:#fff}</style><path fill-rule="evenodd" class="a" d="m1 25.5h1.4c1.3 1.7 3.4 2.8 5.7 2.8q0.8 0 1.6-0.1c0.9 3.3 5.5 5.8 11.1 5.8 4.7 0 8.8-1.8 10.5-4.3 2 2.6 5.5 4.3 9.4 4.3 5.7 0 10.4-3.7 11.2-8.5h0.1v8.5h5.7v0.1q0.7-0.1 1.4-0.1c5.5 0 9.9 4.4 9.9 9.9v19.8c0 5.5-4.4 10-9.9 10q-0.7 0-1.4-0.1v0.1h-5.7v2.8h-0.1q0.1 0.7 0.1 1.4c0 3.9-3.2 7.1-7.1 7.1h-36.8c-3.9 0-7.1-3.2-7.1-7.1q0-0.7 0.1-1.4h-0.1zm62.3 34v-11.3c0-3.2-2.5-5.7-5.6-5.7h-5.7v22.7h5.7c3.1 0 5.6-2.6 5.6-5.7zm-53.8 11.3h5.7v-31.1h-5.7zm14.2 0h5.6v-31.2h-5.6zm14.1 0h5.7v-31.2h-5.7zm-14.1-70.8c5.7 0 10.5 4.3 11.2 9.9 1.7-0.9 3.7-1.4 5.8-1.4 6.2 0 11.3 4.4 11.3 9.9 0 5.5-5.1 9.9-11.3 9.9-3.9 0-7.4-1.7-9.4-4.3-1.7 2.5-5.8 4.3-10.5 4.3-5.6 0-10.2-2.5-11.1-5.8q-0.8 0.2-1.6 0.2c-3.9 0-7.1-3.2-7.1-7.1 0-3.9 3.2-7.1 7.1-7.1 1.6 0 3.1 0.6 4.3 1.5 0.7-5.6 5.5-10 11.3-10z"/></svg>