<svg version="1.2" xmlns="http://www.w3.org/2000/svg" viewBox="0 0 81 70" width="81" height="70"><style>.a{fill:#fff}</style><path fill-rule="evenodd" class="a" d="m8.5 10h17.6q-0.1-0.4-0.1-0.8v-5.9c0-1.8 1.1-3.3 2.5-3.3h25c1.4 0 2.5 1.5 2.5 3.3v5.9q0 0.4-0.1 0.8h17.6c4.1 0 7.5 3.4 7.5 7.5v45c0 4.1-3.4 7.5-7.5 7.5h-65c-4.1 0-7.5-3.4-7.5-7.5v-45c0-4.1 3.4-7.5 7.5-7.5zm10 30c0 12.4 10.1 22.5 22.5 22.5 12.4 0 22.5-10.1 22.5-22.5 0-12.4-10.1-22.5-22.5-22.5-12.4 0-22.5 10.1-22.5 22.5zm22.5-15c8.3 0 15 6.7 15 15 0 8.3-6.7 15-15 15-8.3 0-15-6.7-15-15 0-8.3 6.7-15 15-15zm-5 15c0 2.8 2.2 5 5 5 2.8 0 5-2.2 5-5 0-2.8-2.2-5-5-5-2.8 0-5 2.2-5 5zm-5-32.5h20v-2.5h-20z"/></svg>