<svg version="1.2" xmlns="http://www.w3.org/2000/svg" viewBox="0 0 77 76" width="77" height="76"><style>.a{fill:#fff}</style><path fill-rule="evenodd" class="a" d="m72.2 23.7c2.7 0 4.8 2.2 4.8 4.8v42.7c0 2.7-2.1 4.8-4.8 4.8h-57c-2.6 0-4.7-2.1-4.7-4.8v-2.3h57v-38h-11.9v-7.2zm-66.5-23.7h42.8c2.6 0 4.7 2.1 4.7 4.7v57c0 2.7-2.1 4.8-4.7 4.8h-42.8c-2.6 0-4.7-2.1-4.7-4.8v-57c0-2.6 2.1-4.7 4.7-4.7zm2.4 57h38v-49.9h-38zm16.6 4.8c0 1.3 1.1 2.3 2.4 2.3 1.3 0 2.4-1 2.4-2.3 0-1.3-1.1-2.4-2.4-2.4-1.3 0-2.4 1.1-2.4 2.4zm45.1-11.9c0 1.3 1.1 2.4 2.4 2.4 1.3 0 2.4-1.1 2.4-2.4 0-1.3-1.1-2.4-2.4-2.4-1.3 0-2.4 1.1-2.4 2.4z"/></svg>