<svg version="1.2" xmlns="http://www.w3.org/2000/svg" viewBox="0 0 82 82" width="82" height="82"><style>.a{fill:#fff}</style><path fill-rule="evenodd" class="a" d="m0 51.3v-0.1 0.1zm51.3-51.3l10.3 10.4c-1.5 2.4-0.9 5.9 1.6 8.4 2.5 2.5 6 3.1 8.5 1.6l10.3 10.4-5.1 5h2.5v15.6c-2.9 0.7-5.1 3.8-5.1 7.5 0 3.7 2.2 6.8 5.1 7.6v15.5h-48.6-28.2v-15.5c2.9-0.8 5.1-3.9 5.1-7.6 0-3.7-2.2-6.8-5.1-7.5v-15.6h71.7v-2.5h-6.3c0.2-1.5-0.2-3.1-1.4-4.3l-13.6-13.6c-1.9-1.9-5-1.9-6.9 0l-9.5 9.6-0.7 0.6-7.6 7.7h-10.3zm-13.7 27.3l6 5.9h-11.9zm8.5-8.5c1.9-1.9 5-1.9 6.9 0l10.2 10.2c1.2 1.2 1.6 2.8 1.4 4.3h-17.6l-7.7-7.7zm-33.3 29.9v20.5c0 2.8 2.3 5.1 5.1 5.1h46.1c2.9 0 5.2-2.3 5.2-5.1v-20.5c0-2.8-2.3-5.1-5.2-5.1h-46.1c-2.8 0-5.1 2.3-5.1 5.1zm7.7-2.6h28.2v25.7h-28.2c-2.8 0-5.1-2.3-5.1-5.1v-15.4c0-2.9 2.3-5.2 5.1-5.2zm41 0c2.8 0 5.1 2.3 5.1 5.2v15.4c0 2.8-2.3 5.1-5.1 5.1h-10.3v-25.7z"/></svg>