<svg version="1.2" xmlns="http://www.w3.org/2000/svg" viewBox="0 0 156 151" width="156" height="151"><style>.a{opacity:.6;fill:#fff}</style><path class="a" d="m58.5 34c32.3 0 58.5 26.2 58.5 58.5 0 32.3-26.2 58.5-58.5 58.5-32.3 0-58.5-26.2-58.5-58.5 0-32.3 26.2-58.5 58.5-58.5z"/><path class="a" d="m105 0c25.4 0 46 20.6 46 46 0 25.4-20.6 46-46 46-25.4 0-46-20.6-46-46 0-25.4 20.6-46 46-46z"/><path class="a" d="m120.5 59c19.6 0 35.5 15.9 35.5 35.5 0 19.6-15.9 35.5-35.5 35.5-19.6 0-35.5-15.9-35.5-35.5 0-19.6 15.9-35.5 35.5-35.5z"/></svg>