<svg version="1.2" xmlns="http://www.w3.org/2000/svg" viewBox="0 0 34 33" width="34" height="33"><style>.a{fill:#252825}</style><path fill-rule="evenodd" class="a" d="m17.5 0c9.1 0 16.5 7.4 16.5 16.5 0 9.1-7.4 16.5-16.5 16.5-9.1 0-16.5-7.4-16.5-16.5 0-9.1 7.4-16.5 16.5-16.5zm-13.2 16.5c0 3.2 1.1 6.1 3 8.4 1.5-2.4 5-7.1 11.4-8.9q-0.7-1.3-1.3-2.5c-6 2.3-10.6 2.4-13.1 2.2q0 0.4 0 0.8zm13.2 13.2c1.9 0 3.7-0.4 5.3-1.1-0.7-3.6-1.8-7.1-3.1-10.3-3.7 1.1-7.6 3.4-10.6 8.4 2.3 1.9 5.2 3 8.4 3zm-5.6-25.1c-3.6 1.6-6.3 4.9-7.2 8.8 3.3 0 7.8-0.6 11.6-1.9-1.8-3.2-3.4-5.6-4.4-6.9zm15.7 3.4c-2.7 1.8-5.2 3.3-7.6 4.4q0.8 1.5 1.5 3.1c2.6-0.4 5.7-0.2 9.2 0.7-0.1-3.1-1.2-6-3.1-8.2zm-2.4 19.3c2.8-2.1 4.9-5.3 5.4-9-1.6-0.4-4.7-0.9-8.2-0.5 1.9 4.8 2.6 8.5 2.8 9.5zm-7.7-24q-1.6 0-3.1 0.4c1.8 2.2 3.3 4.4 4.5 6.7 3.5-1.7 5.7-3.4 6.7-4.3-2.2-1.8-5-2.8-8.1-2.8z"/></svg>