<svg version="1.2" xmlns="http://www.w3.org/2000/svg" viewBox="0 0 30 27" width="30" height="27"><style>.a{fill:#272c2c}</style><path class="a" d="m25.2 0c2.6 0 4.8 2.2 4.8 4.8 0 2.7-2.2 4.8-4.8 4.8-2.7 0-4.9-2.1-4.9-4.8 0-2.6 2.2-4.8 4.9-4.8zm-19.4 8.7c2.7 0 4.9 2.1 4.9 4.8 0 2.7-2.2 4.8-4.9 4.8-2.6 0-4.8-2.1-4.8-4.8 0-2.7 2.2-4.8 4.8-4.8zm19.4 8.7c2.6 0 4.8 2.1 4.8 4.8 0 2.6-2.2 4.8-4.8 4.8-2.7 0-4.9-2.2-4.9-4.8 0-2.7 2.2-4.8 4.9-4.8zm-19.8-3.4l-1-2.7 20.9-7.8 1 2.7zm-0.8 0.8l1.3-2.6 20 9.7-1.3 2.6z"/></svg>