<svg version="1.2" xmlns="http://www.w3.org/2000/svg" viewBox="0 0 29 24" width="29" height="24"><style>.a{fill:#252825}</style><path class="a" d="m29 2.8l-2.7 2.7c0 0 0-0.2 0 0.5q0 0.7-0.2 1.4c-0.1 3.9-1.3 8.9-6.2 12.9-9.6 7.8-19.9 0.9-19.9 0.9 8.2 0 8.2-2.8 8.2-2.8-1.9 0-5.5-3.6-5.5-3.6 0.9 0.9 2.7 0 2.7 0-4.5-2.8-4.5-5.6-4.5-5.6 0.9 0.9 2.7 0 2.7 0-4.5-3.7-1.8-8.3-1.8-8.3 0.9 4.6 12.7 6.5 12.7 6.5l0.1-0.1c0-0.4-0.1-1.3-0.1-1.8 0-3.3 2.6-5.5 5.9-5.5 1.8 0 3.4 0.8 4.4 2.1l0.6-0.3 2.7-1.8-1.8 3.7z"/></svg>